<svg id="Layer_1" data-name="Layer 1" xmlns="http://www.w3.org/2000/svg" viewBox="0 0 28.97 25.71"><title>234Artboard 4</title><path d="M8.45,23a4.37,4.37,0,0,1,3.28,1.48l.11.1a3.22,3.22,0,0,0,.43.39l.17.12a4.49,4.49,0,0,0,.42.24l.08,0,.24.1.31.1.28.06a2.65,2.65,0,0,0,.48.07h.23a3.63,3.63,0,0,0,.73-.08,1.31,1.31,0,0,0,.21-.05,2.29,2.29,0,0,0,.37-.12h0l.18-.08.07,0a4.17,4.17,0,0,0,.46-.26l.15-.11a3,3,0,0,0,.46-.41l.1-.11A4.31,4.31,0,0,1,20.49,23H21.7a.74.74,0,0,0,0-1.48H20.51a5.78,5.78,0,0,0-4.38,2l0,0,0,0a1.81,1.81,0,0,1-.3.25l-.08.07a2.1,2.1,0,0,1-.3.15l-.05,0-.11.05-.22.07-.13,0a2.12,2.12,0,0,1-.44,0h-.13l-.29,0a.65.65,0,0,1-.18,0l-.18-.06-.13-.05,0,0a1.35,1.35,0,0,1-.26-.15l-.08-.08-.26-.23-.06-.06a5.86,5.86,0,0,0-4.38-2h-7V4.72H3.32V18.64a.74.74,0,0,0,.74.74h4.6a7.07,7.07,0,0,1,5.27,2.36.74.74,0,0,0,1,.06.73.73,0,0,0,.06-1h0a8.55,8.55,0,0,0-6.37-2.88H4.8V1.49H8.66a7.07,7.07,0,0,1,5.08,2.16V5.34a.74.74,0,0,0,1.48,0V3.64A7.13,7.13,0,0,1,20.3,1.48h3.86V7.62a.74.74,0,0,0,1.48,0V4.72h1.85V17.45a.74.74,0,0,0,1.48,0V4.36a1.12,1.12,0,0,0-1.12-1.12H25.64V.74A.74.74,0,0,0,24.9,0H20.3a8.51,8.51,0,0,0-5.82,2.3A8.55,8.55,0,0,0,8.66,0H4.06a.74.74,0,0,0-.74.73V3.23H1.12A1.12,1.12,0,0,0,0,4.35H0V21.89A1.12,1.12,0,0,0,1.12,23Z" style="fill:#fff"/><path d="M24.06,16.15A6.63,6.63,0,1,0,21.2,19l4.31,4.31a2,2,0,0,0,2.87-2.87Zm-9.55.62a5.17,5.17,0,1,1,3.65,1.51A5.17,5.17,0,0,1,14.51,16.77Zm12.82,5.51a.56.56,0,0,1-.78,0l-4.09-4.1c.14-.12.28-.24.41-.37s.25-.27.37-.41l4.09,4.11a.55.55,0,0,1,0,.77Z" style="fill:#fff"/></svg>