<svg id="Layer_1" data-name="Layer 1" xmlns="http://www.w3.org/2000/svg" viewBox="0 0 22.46 29.94"><title>234Artboard 2</title><path d="M11.23,29.94C8.58,29.94,0,17.57,0,11.23a11.23,11.23,0,0,1,22.46,0C22.46,17.57,13.88,29.94,11.23,29.94Zm0-28.54A9.84,9.84,0,0,0,1.4,11.23c0,6.14,8.4,17,9.86,17.31,1.4-.31,9.79-11.17,9.79-17.31A9.83,9.83,0,0,0,11.23,1.4Zm0,15.13a5.23,5.23,0,1,1,5.22-5.22A5.23,5.23,0,0,1,11.23,16.53Zm0-9a3.82,3.82,0,1,0,3.82,3.82A3.82,3.82,0,0,0,11.23,7.49Z" style="fill:#fff"/></svg>